<?xml version="1.0" standalone="no"?>
<!DOCTYPE svg PUBLIC "-//W3C//DTD SVG 20010904//EN"
 "http://www.w3.org/TR/2001/REC-SVG-20010904/DTD/svg10.dtd">
<svg version="1.0" xmlns="http://www.w3.org/2000/svg"
 width="500.000000pt" height="500.000000pt" viewBox="0 0 500.000000 500.000000"
 preserveAspectRatio="xMidYMid meet">

<g transform="translate(0.000000,500.000000) scale(0.100000,-0.100000)"
fill="#000000" stroke="none">
<path d="M1546 4049 c-111 -26 -209 -111 -265 -229 l-26 -55 -3 -1214 c-2
-1089 -1 -1220 14 -1270 32 -113 119 -211 223 -253 52 -21 75 -23 312 -26
l255 -3 12 -44 c15 -56 69 -111 123 -125 56 -15 122 1 196 49 32 20 90 55 128
76 l70 40 385 5 385 5 65 32 c105 51 170 124 200 221 18 58 20 94 20 364 l0
300 28 26 c237 224 314 308 347 376 62 124 65 306 8 423 -15 30 -53 79 -89
113 -138 133 -318 164 -481 84 -29 -14 -91 -62 -138 -106 -80 -76 -85 -78 -90
-55 -4 13 -18 30 -31 36 -31 14 -412 15 -449 1 -45 -17 -55 -78 -21 -125 13
-19 29 -20 217 -25 l203 -5 -284 -287 -284 -288 -421 0 -422 0 -21 -23 c-28
-30 -29 -80 -2 -107 19 -19 33 -20 365 -20 190 0 345 -3 345 -6 0 -4 -25 -33
-55 -66 -30 -33 -62 -73 -71 -91 -23 -44 -70 -184 -104 -307 -15 -58 -40 -144
-54 -193 -14 -48 -26 -90 -26 -93 0 -3 -114 -4 -252 -2 -248 3 -254 3 -298 28
-62 35 -98 91 -111 170 -6 41 -9 478 -7 1195 l3 1130 24 49 c16 33 38 57 69
77 l46 29 632 0 633 0 3 -207 c3 -238 9 -257 90 -303 42 -24 50 -25 271 -28
l227 -4 0 -158 0 -159 33 14 c17 7 55 16 82 20 93 13 85 -6 85 198 -1 259 17
226 -315 558 l-270 269 -735 -1 c-404 -1 -752 -5 -774 -10z m1699 -445 c22
-21 49 -49 59 -62 l19 -22 -136 0 -137 0 0 137 0 136 78 -74 c42 -42 95 -93
117 -115z m500 -827 c75 -39 135 -139 135 -226 0 -60 -27 -134 -60 -166 l-30
-29 -27 25 c-15 13 -94 90 -176 170 l-148 146 38 33 c60 53 109 71 178 67 34
-3 74 -11 90 -20z m-106 -460 c31 -32 57 -62 59 -65 1 -4 -42 -52 -97 -106
l-99 -98 -135 133 c-74 74 -152 153 -172 177 l-38 43 98 99 99 100 115 -113
c63 -61 139 -138 170 -170z m-536 -55 l37 -38 -295 -294 -295 -294 -35 34
c-19 19 -34 39 -32 44 4 11 569 583 577 585 3 0 23 -16 43 -37z m332 -919 c-9
-61 -71 -128 -138 -148 -55 -16 -367 -21 -367 -6 0 5 114 121 253 260 l252
251 3 -158 c2 -86 0 -176 -3 -199z m-863 75 c70 -73 128 -134 128 -137 0 -3
-22 -18 -48 -34 -26 -15 -105 -64 -177 -108 -71 -44 -149 -92 -171 -105 l-41
-24 53 177 c30 98 66 220 80 271 15 50 31 92 37 92 6 0 68 -59 139 -132z"/>
<path d="M2012 3434 c-18 -12 -22 -25 -22 -67 l0 -52 -49 -21 -49 -22 -33 34
c-46 48 -76 45 -128 -11 -22 -24 -41 -55 -41 -67 0 -12 14 -37 32 -55 l31 -32
-18 -41 c-17 -38 -21 -40 -60 -40 -28 0 -51 -7 -69 -21 -23 -18 -26 -28 -26
-78 0 -76 13 -92 84 -100 55 -6 58 -8 75 -46 l18 -40 -34 -38 c-46 -51 -43
-75 16 -131 55 -51 67 -51 120 -3 l31 27 50 -16 50 -16 0 -45 c0 -74 10 -83
89 -83 83 0 101 15 101 82 0 45 1 46 46 63 l45 17 39 -31 c21 -17 46 -31 55
-31 22 0 103 67 110 91 7 21 -8 54 -41 89 -24 26 -24 26 -6 70 17 44 18 45 59
42 35 -3 47 2 69 23 24 24 26 32 21 83 -7 70 -30 92 -92 92 -39 0 -43 2 -60
40 l-18 39 37 41 c20 22 36 45 36 50 0 6 -19 32 -42 58 -24 26 -44 49 -45 51
-1 2 -15 4 -30 4 -19 0 -37 -11 -58 -36 l-30 -35 -48 24 c-46 24 -47 25 -47
74 0 61 -22 80 -95 80 -30 0 -60 -6 -73 -16z m141 -300 c75 -38 117 -104 117
-181 -2 -121 -118 -213 -232 -182 -156 42 -199 236 -74 335 57 46 131 57 189
28z"/>
<path d="M2744 3128 c-23 -11 -44 -48 -44 -77 0 -10 12 -28 26 -42 25 -24 27
-24 241 -24 l215 0 25 29 c29 35 25 69 -13 104 -24 21 -31 22 -227 21 -117 0
-211 -5 -223 -11z"/>
<path d="M1740 2393 c-54 -20 -69 -92 -27 -131 23 -22 26 -22 433 -22 399 0
411 1 432 20 30 28 30 90 1 116 -20 18 -43 19 -423 21 -220 1 -408 -1 -416 -4z"/>
<path d="M1730 1783 c-37 -13 -52 -71 -30 -113 18 -33 66 -40 277 -40 185 0
204 2 209 18 3 9 16 45 29 80 l23 62 -246 -1 c-136 0 -254 -3 -262 -6z"/>
</g>
</svg>
